# xmcd CD database file
#
# Track frame offsets:
#	150
#	15252
#	28722
#	41207
#	56645
#	69807
#	82597
#	96735
#	110720
#	122757
#	132252
#	144470
#	158292
#	174205
#	189784
#	204285
#	217417
#	231212
#	244812
#	258492
#
# Disc length: 3617 seconds
#
# Revision: 0
# Processed by: cddbd v1.4PL0 Copyright (c) Steve Scherf et al.
# Submitted via: CDex 1.50Beta7
#
DISCID=0d0e1f14
DTITLE=Lucky Millinder - Jumpin' At the Savoy
DYEAR=1900
DGENRE=Jazz
TTITLE0=Ride Red Ride
TTITLE1=Rock Daniel
TTITLE2=Shout Sister Shout
TTITLE3=Apollo Jump
TTITLE4=I Want a Tall Skinny Papa
TTITLE5=Mason Flyer
TTITLE6=Little John Special
TTITLE7=Down By The River Side
TTITLE8=Rock Me
TTITLE9=That's all
TTITLE10=Trouble in Mind
TTITLE11=Jitters
TTITLE12=Rhythm Changes
TTITLE13=Savoy
TTITLE14=Three Bones
TTITLE15=Shipyard Social Function
TTITLE16=Hurry, Hurry!
TTITLE17=Who Threw the Whiskey in the Well!
TTITLE18=The Spider and the Fly
TTITLE19=Berserk Boogie
EXTD=
EXTT0=
EXTT1=
EXTT2=
EXTT3=
EXTT4=
EXTT5=
EXTT6=
EXTT7=
EXTT8=
EXTT9=
EXTT10=
EXTT11=
EXTT12=
EXTT13=
EXTT14=
EXTT15=
EXTT16=
EXTT17=
EXTT18=
EXTT19=
PLAYORDER=
